<?xml version="1.0" encoding="utf-8"?>
<!-- Svg Vector Icons : http://www.onlinewebfonts.com/icon -->
<!DOCTYPE svg PUBLIC "-//W3C//DTD SVG 1.1//EN" "http://www.w3.org/Graphics/SVG/1.1/DTD/svg11.dtd">
<svg version="1.1" xmlns="http://www.w3.org/2000/svg" xmlns:xlink="http://www.w3.org/1999/xlink" x="0px" y="0px" viewBox="0 0 1000 1000" enable-background="new 0 0 1000 1000" xml:space="preserve">
<metadata> Svg Vector Icons : http://www.onlinewebfonts.com/icon </metadata>
<g><path d="M500,10C229.4,10,10,229.4,10,500c0,270.6,219.4,490,490,490c270.6,0,490-219.4,490-490C990,229.4,770.6,10,500,10z M500,952.3C250.2,952.3,47.7,749.8,47.7,500C47.7,250.2,250.2,47.7,500,47.7c249.8,0,452.3,202.5,452.3,452.3C952.3,749.8,749.8,952.3,500,952.3z"/><path d="M332.4,691.2h330.2H332.4z"/><path d="M409.3,392.5c-15.9-17.2-38.9-28.1-64.6-28.1c-47.8,0-86.6,37.7-86.6,84.2s38.8,84.2,86.6,84.2l-0.5,17c-58.6,0-106.1-46.2-106.1-103.2c0-57,47.5-103.2,106.1-103.2c31.4,0,59.7,13.3,79.1,34.4"/><path d="M623.5,370.6c9.3-3.5,19.4-5.4,30-5.4c46.3,0,83.8,36.5,83.8,81.5c0,45-37.5,81.5-83.8,81.5l-2.7,21.8c58.6,0,106.1-46.2,106.1-103.2c0-57-47.5-103.2-106.1-103.2c-13.4,0-26.2,2.4-38,6.8"/><path d="M405.4,373c23.3-31.5,48.4-69.9,92.7-70c76.7-0.1,96.4,46,116.7,89l12.4-14.2c-22.4-47.4-44.1-98.1-128.7-98.1c-58.6,0-80.5,40.5-106.1,75.2"/><path d="M321.7,538.4h16.3v206.5h-16.3V538.4z"/><path d="M661.1,538.4h16.3v206.5h-16.3V538.4z"/><path d="M423.4,584.3h11.1v106.9h-11.1V584.3L423.4,584.3z"/><path d="M492,584.3h11.1v106.9H492V584.3L492,584.3z"/><path d="M563.5,584.3h11.1v106.9h-11.1V584.3L563.5,584.3z"/><path d="M322.7,728.5h354.7v16.3H322.7V728.5z"/><path d="M321.9,685.8h354.7v11.1H321.9V685.8z"/></g>
</svg>